Coordinates
version=1
nRows=32
nColumns=18
inDegrees=yes

Units are S.I. units (second, meters, Newtons, ...)
If the header above contains a line with 'inDegrees', this indicates whether rotational values are in degrees (yes) or radians (no).

endheader
time	ground_thorax_rot_x	ground_thorax_rot_y	ground_thorax_rot_z	ground_thorax_tx	ground_thorax_ty	ground_thorax_tz	clav_prot	clav_elev	scapula_abduction	scapula_elevation	scapula_upward_rot	scapula_winging	plane_elv	shoulder_elv	axial_rot	elbow_flexion	pro_sup
      2.26000000	    -10.93804006	      1.12672728	      1.16226443	     -0.09805627	      0.04034751	      0.01223405	    -34.01714351	    -14.52536726	    -10.41566923	    -17.11265464	     42.76679633	     30.36787894	      6.00000000	     94.18798602	    -59.26550851	     31.08041664	     63.92270238
      2.28000000	    -10.77223481	      0.89147617	      1.21690166	     -0.09770887	      0.04050322	      0.01263340	    -34.25459024	    -14.48894455	    -10.81393615	    -17.10423607	     42.76364041	     30.35875622	      6.00000000	     94.72031195	    -59.78347126	     31.19798962	     63.92270238
      2.30000000	    -10.66354117	      0.54586273	      1.47021813	     -0.09747021	      0.04071565	      0.01294335	    -34.39884559	    -14.42554265	    -10.99344597	    -17.08220149	     42.85965774	     30.31711456	      6.00000000	     94.90429033	    -59.80862275	     31.20698102	     63.92270238
      2.32000000	    -10.53072289	      0.24714611	      1.51409346	     -0.09707275	      0.04049662	      0.01325837	    -34.42473053	    -14.32229637	    -11.28874744	    -16.99883147	     42.60414180	     30.27765127	      6.00000000	     95.51958724	    -60.47034586	     31.51901958	     63.92270238
      2.34000000	    -10.44880643	     -0.07144941	      1.74505246	     -0.09675210	      0.04034918	      0.01345174	    -34.52856331	    -14.25273283	    -11.44451647	    -16.96668902	     42.65339430	     30.23450381	      6.00000000	     95.64162585	    -60.49624246	     31.51384836	     63.92270238
      2.36000000	    -10.77691092	     -0.86208795	      2.12708186	     -0.09642587	      0.03986921	      0.01368644	    -33.94348202	    -14.23231502	    -11.36876812	    -16.82649601	     41.61131525	     30.29124692	      6.00000000	     96.25754279	    -61.40912003	     31.79211733	     63.92270238
      2.38000000	    -10.92938610	     -1.50272312	      2.60332054	     -0.09616518	      0.03941479	      0.01372089	    -33.52931210	    -14.05739717	    -11.17166585	    -16.64949182	     41.13296364	     30.20323402	      6.00000000	     96.35942521	    -61.54690039	     32.04574150	     63.92270238
      2.40000000	    -11.14795321	     -2.06751900	      3.19590627	     -0.09604807	      0.03878176	      0.01354165	    -33.07861474	    -13.83114695	    -10.95308892	    -16.43534033	     40.63634188	     30.08283867	      6.00000000	     96.34188940	    -61.68275108	     32.10403033	     63.92270238
      2.42000000	    -11.48084154	     -3.10887093	      3.68032157	     -0.09562726	      0.03785015	      0.01363807	    -32.06664337	    -13.65726896	    -10.33647147	    -16.15425079	     39.50015754	     30.01777991	      6.00000000	     96.91827315	    -61.88438835	     32.21195600	     63.92270238
      2.44000000	    -11.86498303	     -3.96422306	      4.34465435	     -0.09541846	      0.03704103	      0.01343551	    -31.17169917	    -13.47854948	     -9.83619720	    -15.87983525	     38.45231416	     29.94506181	      6.00000000	     97.18888701	    -61.87626893	     32.25376501	     63.92270238
      2.46000000	    -12.19237128	     -4.84750099	      4.98724186	     -0.09513934	      0.03607727	      0.01325388	    -30.21321262	    -13.20099406	     -9.16673515	    -15.55019279	     37.54212551	     29.78808392	      6.00000000	     97.35734919	    -61.88557776	     32.27853843	     63.92270238
      2.48000000	    -12.51593822	     -5.71207639	      5.62500977	     -0.09486603	      0.03515894	      0.01308347	    -29.26006755	    -12.93576089	     -8.44798434	    -15.23241264	     36.69848756	     29.62738376	      6.00000000	     97.42439036	    -61.87204907	     32.29068793	     63.92270238
      2.50000000	    -12.82763744	     -6.50692920	      6.21693189	     -0.09459706	      0.03432911	      0.01290354	    -28.35152357	    -12.69094824	     -7.75170780	    -14.93245374	     35.90466145	     29.47424076	      6.00000000	     97.43032916	    -61.83094422	     32.31412958	     63.92270238
      2.52000000	    -13.09470489	     -7.22922818	      6.67610903	     -0.09426150	      0.03350441	      0.01276630	    -27.44065513	    -12.49195085	     -7.06348196	    -14.65315382	     35.07277579	     29.34601068	      6.00000000	     97.65681500	    -61.76237114	     32.14134908	     63.92270238
      2.54000000	    -13.34977275	     -7.76583600	      7.05189719	     -0.09394515	      0.03290334	      0.01263031	    -26.75510940	    -12.38681735	     -6.55145463	    -14.46494973	     34.41569768	     29.27479080	      6.00000000	     97.73335173	    -61.64916226	     31.94244587	     63.92270238
      2.56000000	    -13.53648090	     -8.16106349	      7.26690084	     -0.09359756	      0.03247504	      0.01262548	    -26.24327649	    -12.33398045	     -6.11734159	    -14.34719149	     33.97808786	     29.22702407	      6.00000000	     97.70887687	    -61.61591388	     31.80675850	     63.92270238
      2.58000000	    -13.67879637	     -8.18981474	      7.25861310	     -0.09319930	      0.03205874	      0.01259246	    -26.11035039	    -12.28822445	     -6.04338225	    -14.29112917	     33.83155909	     29.20107551	      6.00000000	     97.58212291	    -61.60465047	     31.65496986	     63.92270238
      2.60000000	    -13.69576093	     -8.08948827	      7.15084069	     -0.09294411	      0.03200840	      0.01265744	    -26.04026553	    -12.32506879	     -5.97007760	    -14.30253599	     33.76637191	     29.21860316	      6.00000000	     97.49781125	    -61.59450646	     31.61514051	     63.92270238
      2.62000000	    -13.79773323	     -8.14140697	      6.76177618	     -0.09245981	      0.03216510	      0.01312765	    -26.06942608	    -12.70489296	     -5.84529239	    -14.55099441	     33.78485733	     29.42637125	      6.00000000	     97.44992521	    -61.48278590	     31.18137368	     63.92270238
      2.64000000	    -13.84343894	     -7.76307209	      6.27559639	     -0.09213892	      0.03258996	      0.01345310	    -26.47534436	    -13.15629891	     -6.17485665	    -14.87941067	     33.93227227	     29.71702530	      6.00000000	     97.29262678	    -61.28682157	     30.97067593	     63.92270238
      2.66000000	    -13.70773169	     -7.34980825	      5.60519390	     -0.09187795	      0.03301732	      0.01396354	    -26.83279575	    -13.53586536	     -6.35420467	    -15.17733643	     34.21165259	     29.94940929	      6.00000000	     97.21319613	    -61.17829044	     30.90954250	     63.92270238
      2.68000000	    -13.67101107	     -6.49649763	      4.86299627	     -0.09166263	      0.03375716	      0.01435183	    -27.88819359	    -14.19423668	     -7.17476909	    -15.73909559	     34.90831249	     30.39579934	      6.00000000	     96.54559841	    -60.93176157	     30.77112056	     63.92270238
      2.70000000	    -13.47025711	     -5.69784442	      3.98037647	     -0.09153111	      0.03440842	      0.01492823	    -28.79031811	    -14.78859269	     -7.76536258	    -16.25102746	     35.62434653	     30.78877066	      6.00000000	     96.01314342	    -60.70764736	     30.73339964	     63.92270238
      2.72000000	    -13.20876386	     -4.84098710	      3.06253269	     -0.09151139	      0.03510403	      0.01550767	    -29.72346638	    -15.42994407	     -8.37141140	    -16.79068175	     36.35213075	     31.22067466	      6.00000000	     95.42675907	    -60.40764884	     30.74264278	     63.92270238
      2.74000000	    -12.89969409	     -3.97337369	      2.13432063	     -0.09160415	      0.03579874	      0.01609096	    -30.64627583	    -16.10197164	     -8.95201321	    -17.34262618	     37.06955732	     31.68110773	      6.00000000	     94.76661821	    -60.01223015	     30.82751454	     63.92270238
      2.76000000	    -12.56230947	     -3.12784151	      1.21998553	     -0.09179792	      0.03638564	      0.01666819	    -31.49820404	    -16.76266838	     -9.45040363	    -17.87445698	     37.75195701	     32.13934869	      6.00000000	     94.04524513	    -59.54038903	     30.91015189	     63.92270238
      2.78000000	    -12.22074264	     -2.34996836	      0.37454309	     -0.09211846	      0.03689839	      0.01720011	    -32.22505990	    -17.42811159	     -9.85203353	    -18.38351212	     38.29910595	     32.61270805	      6.00000000	     93.28649238	    -58.97565582	     31.05820703	     63.92270238
      2.80000000	    -11.86242981	     -1.82592865	     -0.48254008	     -0.09246507	      0.03707849	      0.01778800	    -32.52337575	    -17.98061137	     -9.90231268	    -18.76115434	     38.49622783	     33.01156193	      6.00000000	     92.80877923	    -58.56843579	     31.32563014	     63.92270238
      2.82000000	    -11.62099964	     -1.06369500	     -1.05314923	     -0.09302559	      0.03753487	      0.01810260	    -33.23888197	    -18.66102021	    -10.30681519	    -19.26725076	     38.99619757	     33.52073985	      6.00000000	     91.55748352	    -57.55453560	     31.50662363	     63.92270238
      2.84000000	    -11.36026767	     -0.68646393	     -1.68453241	     -0.09353476	      0.03750006	      0.01853939	    -33.32264473	    -19.17604983	    -10.20226355	    -19.58534625	     38.97002991	     33.91351778	      6.00000000	     90.83092785	    -57.02928158	     31.82357262	     63.92270238
      2.86000000	    -11.19639042	     -0.22218271	     -2.04672941	     -0.09422673	      0.03761720	      0.01875406	    -33.53570724	    -19.71997295	    -10.22809242	    -19.93384866	     39.01374557	     34.34043364	      6.00000000	     89.65678313	    -55.92377638	     32.04112351	     63.92270238
      2.88000000	    -11.06952635	      0.03709910	     -2.37978543	     -0.09490150	      0.03746855	      0.01899914	    -33.42772591	    -20.17718794	    -10.02012981	    -20.18421523	     38.75779220	     34.70795531	      6.00000000	     88.65648161	    -55.05030428	     32.31958604	     63.92270238
